<svg width="10" height="11" viewBox="0 0 10 11" fill="none" xmlns="http://www.w3.org/2000/svg">
<path fill-rule="evenodd" clip-rule="evenodd" d="M8.35352 3.14652C8.44726 3.24028 8.49991 3.36743 8.49991 3.50002C8.49991 3.6326 8.44726 3.75975 8.35352 3.85352L4.35352 7.85352C4.25976 7.94725 4.1326 7.99991 4.00002 7.99991C3.86744 7.99991 3.74028 7.94725 3.64652 7.85352L1.64652 5.85352C1.55544 5.75921 1.50504 5.63291 1.50618 5.50181C1.50732 5.37072 1.55991 5.24531 1.65261 5.15261C1.74532 5.0599 1.87072 5.00732 2.00182 5.00618C2.13292 5.00504 2.25922 5.05544 2.35352 5.14652L4.00002 6.79302L7.64652 3.14652C7.74028 3.05278 7.86744 3.00012 8.00002 3.00012C8.1326 3.00012 8.25976 3.05278 8.35352 3.14652Z" fill="white"/>
</svg>
